<svg id="delete_1_" data-name="delete (1)" xmlns="http://www.w3.org/2000/svg" xmlns:xlink="http://www.w3.org/1999/xlink" width="100" height="100" viewBox="0 0 100 100">
  <defs>
    <linearGradient id="linear-gradient" x1="0.5" y1="0.5" x2="0.5" y2="1.354" gradientUnits="objectBoundingBox">
      <stop offset="0" stop-color="#f60f0f"/>
      <stop offset="1" stop-color="#9d130e"/>
    </linearGradient>
  </defs>
  <path id="Pfad_1860" data-name="Pfad 1860" d="M50,0a50,50,0,1,0,50,50A50.057,50.057,0,0,0,50,0Z" fill-rule="evenodd" fill="url(#linear-gradient)"/>
  <path id="Pfad_1521" data-name="Pfad 1521" d="M163.545,156.04V132.833a1.644,1.644,0,1,1,3.288,0v23.207a1.644,1.644,0,1,1-3.289,0Zm-11.732,0V132.833a1.644,1.644,0,1,1,3.288,0V156.04a1.644,1.644,0,1,1-3.289,0Zm30.874-33.489H135.98v-3.787a3.779,3.779,0,0,1,3.763-3.788h39.18a3.78,3.78,0,0,1,3.763,3.789v3.787Zm-6.45,39.868,2.649-36.559H139.76l2.482,36.549a2.511,2.511,0,0,0,2.492,2.343h29.012a2.486,2.486,0,0,0,2.492-2.333Zm-26.619-54.785a1.625,1.625,0,0,1,1.618-1.63h16.189a1.628,1.628,0,0,1,1.619,1.632v4.029H149.62Z" transform="translate(-109.334 -85.379)" fill="#fff" fill-rule="evenodd"/>
</svg>
